<mxfile host="app.diagrams.net" modified="2024-07-01T08:08:33.638Z" agent="Mozilla/5.0 (Windows NT 10.0; Win64; x64) AppleWebKit/537.36 (KHTML, like Gecko) Chrome/126.0.0.0 Safari/537.36 Edg/126.0.0.0" version="24.6.4" etag="uvMEoYx5zG4R640oylJf" type="github">
  <diagram name="Страница — 1" id="hRa_7iByHlju29TwDnkL">
    <mxGraphModel>
      <root>
        <mxCell id="0" />
        <mxCell id="1" parent="0" />
      </root>
    </mxGraphModel>
  </diagram>
</mxfile>
